<svg width="443" height="114" viewBox="0 0 443 114" fill="none" xmlns="http://www.w3.org/2000/svg">
<path d="M98.7162 11.488L61.8522 112H37.3722L0.508188 11.488H22.1082L49.7562 91.408L77.2602 11.488H98.7162ZM105.907 61.6C105.907 51.712 108.115 42.88 112.531 35.104C117.043 27.232 123.139 21.136 130.819 16.816C138.595 12.4 147.283 10.192 156.883 10.192C168.115 10.192 177.955 13.072 186.403 18.832C194.851 24.592 200.755 32.56 204.115 42.736H180.931C178.627 37.936 175.363 34.336 171.139 31.936C167.011 29.536 162.211 28.336 156.739 28.336C150.883 28.336 145.651 29.728 141.043 32.512C136.531 35.2 132.979 39.04 130.387 44.032C127.891 49.024 126.643 54.88 126.643 61.6C126.643 68.224 127.891 74.08 130.387 79.168C132.979 84.16 136.531 88.048 141.043 90.832C145.651 93.52 150.883 94.864 156.739 94.864C162.211 94.864 167.011 93.664 171.139 91.264C175.363 88.768 178.627 85.12 180.931 80.32H204.115C200.755 90.592 194.851 98.608 186.403 104.368C178.051 110.032 168.211 112.864 156.883 112.864C147.283 112.864 138.595 110.704 130.819 106.384C123.139 101.968 117.043 95.872 112.531 88.096C108.115 80.32 105.907 71.488 105.907 61.6ZM216.15 71.824C216.15 63.76 217.734 56.608 220.902 50.368C224.166 44.128 228.534 39.328 234.006 35.968C239.574 32.608 245.766 30.928 252.582 30.928C258.534 30.928 263.718 32.128 268.134 34.528C272.646 36.928 276.246 39.952 278.934 43.6V32.224H299.238V112H278.934V100.336C276.342 104.08 272.742 107.2 268.134 109.696C263.622 112.096 258.39 113.296 252.438 113.296C245.718 113.296 239.574 111.568 234.006 108.112C228.534 104.656 224.166 99.808 220.902 93.568C217.734 87.232 216.15 79.984 216.15 71.824ZM278.934 72.112C278.934 67.216 277.974 63.04 276.054 59.584C274.134 56.032 271.542 53.344 268.278 51.52C265.014 49.6 261.51 48.64 257.766 48.64C254.022 48.64 250.566 49.552 247.398 51.376C244.23 53.2 241.638 55.888 239.622 59.44C237.702 62.896 236.742 67.024 236.742 71.824C236.742 76.624 237.702 80.848 239.622 84.496C241.638 88.048 244.23 90.784 247.398 92.704C250.662 94.624 254.118 95.584 257.766 95.584C261.51 95.584 265.014 94.672 268.278 92.848C271.542 90.928 274.134 88.24 276.054 84.784C277.974 81.232 278.934 77.008 278.934 72.112ZM355.504 48.784H341.536V112H321.088V48.784H312.016V32.224H321.088V28.192C321.088 18.4 323.872 11.2 329.44 6.59199C335.008 1.98399 343.408 -0.176003 354.64 0.111999V17.104C349.744 17.008 346.336 17.824 344.416 19.552C342.496 21.28 341.536 24.4 341.536 28.912V32.224H355.504V48.784ZM442.729 70.384C442.729 73.264 442.537 75.856 442.153 78.16H383.833C384.313 83.92 386.329 88.432 389.881 91.696C393.433 94.96 397.801 96.592 402.985 96.592C410.473 96.592 415.801 93.376 418.969 86.944H440.713C438.409 94.624 433.993 100.96 427.465 105.952C420.937 110.848 412.921 113.296 403.417 113.296C395.737 113.296 388.825 111.616 382.681 108.256C376.633 104.8 371.881 99.952 368.425 93.712C365.065 87.472 363.385 80.272 363.385 72.112C363.385 63.856 365.065 56.608 368.425 50.368C371.785 44.128 376.489 39.328 382.537 35.968C388.585 32.608 395.545 30.928 403.417 30.928C411.001 30.928 417.769 32.56 423.721 35.824C429.769 39.088 434.425 43.744 437.689 49.792C441.049 55.744 442.729 62.608 442.729 70.384ZM421.849 64.624C421.753 59.44 419.881 55.312 416.233 52.24C412.585 49.072 408.121 47.488 402.841 47.488C397.849 47.488 393.625 49.024 390.169 52.096C386.809 55.072 384.745 59.248 383.977 64.624H421.849Z" fill="#FF0000"/>
</svg>
